<?xml version="1.0" encoding="utf-8"?>
<!-- Generator: Adobe Illustrator 17.0.0, SVG Export Plug-In . SVG Version: 6.00 Build 0)  -->
<!DOCTYPE svg PUBLIC "-//W3C//DTD SVG 1.1//EN" "http://www.w3.org/Graphics/SVG/1.1/DTD/svg11.dtd">
<svg version="1.1" id="Layer_1" xmlns="http://www.w3.org/2000/svg" xmlns:xlink="http://www.w3.org/1999/xlink" x="0px" y="0px"
	 width="65.959px" height="76.893px" viewBox="25.571 26.916 65.959 76.893" enable-background="new 25.571 26.916 65.959 76.893"
	 xml:space="preserve">
<g>
	<path fill="#7EBFE9" d="M80.65,54.667c0,0,6.688,9.941,1.625,22.584l-6.482-7.333c0,0-0.041,4.765-2.797,10.356
		c-2.873,5.832-5.86,5.727-6.778,5.996c-0.326,0.056-5.188,9.399-6.214,9.129c-2.951-0.775-6.05-8.48-6.373-8.265
		c-1.412,0.94-2.105-0.803-2.105-0.803c5.582,10.944,6.743,8.714,6.743,9.392c0,0.379-0.634,3.623-0.795,3.565
		c-4.36-1.453-11.059-18.834-11.059-18.834l-1.836,4.756c-2.701-2.487-1.441-16.038-1.873-15.821
		c-5.377,2.689-6.403,6.069-7.135,7.737l-0.739-2.254c-4.861-7.619,1.31-20.42,1.31-20.42c-1.402-0.109-4.969,3.079-4.969,2.917
		c0-6.985,8.049-13.45,6.43-13.289c-1.622,0.163-3.89,0.81-3.89,0.81c-0.553-2.207,3.191-5.834,2.947-5.834
		c-4.375,0-5.835-1.863-5.835-1.863c2.108-0.242,4.332-4.564,6.6-4.674c3.596-0.171,4.051,1.946,4.051,1.946
		c2.514-1.622,5.997-1.867,5.997-1.867c-0.565-1.298-2.269-2.054-2.269-2.054c3.136-1.141,8.069,1.085,8.069,1.085
		c0.242-1.863-0.461-2.46-0.461-2.46c2.403-0.398,5.74,3.46,5.74,3.46l0.102,0.243c0,0,3.231-3.887,5.635-3.486
		c0,0-0.703,0.593-0.459,2.459c0,0,4.931-2.224,8.068-1.086c0,0-1.702,0.757-2.27,2.055c0,0,2.559,0.245,5.071,1.864
		c0,0,1.384-2.113,4.978-1.943c2.269,0.108,4.49,4.43,6.598,4.675c0,0-1.458,1.864-5.833,1.864c-0.243,0,3.807,3.626,3.257,5.832
		c0,0-2.271-0.647-3.892-0.809c-1.62-0.161,5.812,6.303,5.812,13.289C85.619,57.749,82.055,54.561,80.65,54.667"/>
	<path fill="#FFFFFF" d="M52.261,67.457c0,0-2.315,2.188,0.772,7.36c0,0-0.077-1.605,0.539-3.789
		c0.385-1.359,0.849-2.694,0.849-3.279C54.421,67.166,52.801,67.457,52.261,67.457"/>
	<path fill="none" stroke="#004B85" stroke-width="0.374" d="M52.261,67.457c0,0-2.315,2.188,0.772,7.36
		c0,0-0.077-1.605,0.539-3.789c0.385-1.359,0.849-2.694,0.849-3.279C54.421,67.166,52.801,67.457,52.261,67.457z"/>
	<path fill="#FFFFFF" d="M65.631,67.457c0,0,2.313,2.188-0.771,7.36c0,0,0.075-1.605-0.539-3.789
		c-0.388-1.359-0.851-2.694-0.851-3.279C63.47,67.166,65.091,67.457,65.631,67.457"/>
	<path fill="none" stroke="#004B85" stroke-width="0.374" d="M65.631,67.457c0,0,2.313,2.188-0.771,7.36
		c0,0,0.075-1.605-0.539-3.789c-0.388-1.359-0.851-2.694-0.851-3.279C63.47,67.166,65.091,67.457,65.631,67.457z"/>
	<path fill="#FFFFFF" d="M53.803,81.879c0,0-2.313-2.186,0.773-7.359c0,0-0.078,1.604,0.54,3.791
		c0.384,1.358,0.849,2.693,0.849,3.275C55.965,82.169,54.343,81.879,53.803,81.879"/>
	<path fill="none" stroke="#004B85" stroke-width="0.374" d="M53.803,81.879c0,0-2.313-2.186,0.773-7.359
		c0,0-0.078,1.604,0.54,3.791c0.384,1.358,0.849,2.693,0.849,3.275C55.965,82.169,54.343,81.879,53.803,81.879z"/>
	<path fill="#FFFFFF" d="M64.087,81.879c0,0,2.315-2.186-0.771-7.359c0,0,0.076,1.604-0.54,3.791
		c-0.385,1.358-0.849,2.693-0.849,3.275C61.927,82.169,63.546,81.879,64.087,81.879"/>
	<path fill="none" stroke="#004B85" stroke-width="0.374" d="M64.087,81.879c0,0,2.315-2.186-0.771-7.359
		c0,0,0.076,1.604-0.54,3.791c-0.385,1.358-0.849,2.693-0.849,3.275C61.927,82.169,63.546,81.879,64.087,81.879z"/>
	<path fill="#FFFFFF" d="M54.24,67.93l1.388,3.789l1.466-3.098l1.66,3.133l1.736-3.279l1.542,3.244l1.508-3.572
		c0,0-3.667-1.75-4.748-1.75S54.546,67.602,54.24,67.93"/>
	<path fill="none" stroke="#004B85" stroke-width="0.374" d="M54.24,67.93l1.388,3.789l1.466-3.098l1.66,3.133l1.736-3.279
		l1.542,3.244l1.508-3.572c0,0-3.667-1.75-4.748-1.75S54.546,67.602,54.24,67.93z"/>
	<path fill="#FFFFFF" d="M55.937,80.86l1.003-3.129l1.852,2.185l1.929-2.258l1.158,2.985c0,0-2.47,0.656-3.242,0.656
		C57.867,81.299,55.937,80.86,55.937,80.86"/>
	<path fill="none" stroke="#004B85" stroke-width="0.374" d="M55.937,80.86l1.003-3.129l1.852,2.185l1.929-2.258l1.158,2.985
		c0,0-2.47,0.656-3.242,0.656C57.867,81.299,55.937,80.86,55.937,80.86z"/>
	<path fill="#004B85" d="M66.721,72.751c-0.854,2.283-1.144,4.004-1.01,4.759c0.192,1.104,0.026,2.566-0.823,3.205
		c-0.579,0.438-1.349,0.1-1.979,0.051c-0.625-0.051-4.752-0.43-7.337,0.239c-1.543,0.402-2.471,0.347-2.799-0.19
		c-0.772-1.267-0.29-2.226-0.339-3.209c-0.096-1.989,0.073-2.647-0.965-4.517c-1.058-1.903-1.269-3.737,0.941-5.222
		c1.26,0.169,1.884,0.34,3.716,0.135c1.157-0.13,2.414-0.4,2.509-1.08h0.187c0.097,0.68,1.432,1.008,2.51,1.067
		c2.146,0.12,1.891,0.267,4.337-0.192C66.346,68.493,67.991,69.373,66.721,72.751 M69.054,64.494
		c-0.191,0.389-0.653,0.683-1.351,0.972c-1.584,0.654-5.986,0.485-6.95-0.292l-0.579-2.914h-2.889l-0.579,2.914
		c-0.965,0.777-4.44,0.995-6.372,0.292c-0.708-0.259-1.156-0.583-1.351-0.972L47.44,64.76c0,0,0.781,1.113,0.964,1.483
		c0.171,0.339,0.871,0.753,1.799,0.947c-0.409,0.521-1.857,3.071-0.519,5.658c0.713,1.375,1.736,2.731,1.494,4.709
		c-0.285,2.348-0.73,3.606,0.389,4.858c0.867,0.974,2.321,0.869,4.344,0.295c2.894-0.829,6.13-0.101,7.047,0.095
		c0.93,0.197,2.702,0.389,3.523-0.535c0.82-0.924,0.879-3.227,0.82-4.76c-0.096-2.552,0.625-3.691,1.159-4.662
		c1.28-2.332,0.1-4.988-0.543-5.763c1.079-0.119,1.589-0.593,1.715-0.843c0.184-0.37,0.758-1.411,0.758-1.411L69.054,64.494z"/>
	<path fill="#004B85" d="M51.994,74.733c0.138,1.098,1.239,3.162,1.239,3.162c-0.552,1.648,0.687,4.125,0.687,4.125l-1.512,0.138
		l-0.963-3.849L51.994,74.733"/>
	<path fill="#004B85" d="M66.193,75.557c-0.086,0.961-1.19,2.476-1.19,2.476l-0.086,3.438l1.19,0.549l0.596-4.125L66.193,75.557"/>
	<polygon fill="#004B85" points="54.607,76.106 56.667,78.582 55.842,80.507 	"/>
	<polygon fill="#004B85" points="63.129,76.382 60.928,78.309 61.878,80.643 	"/>
	<polygon fill="#004B85" points="53.573,71.028 55.706,72.257 54.357,68.252 	"/>
	<polygon fill="#004B85" points="55.627,71.719 57.093,68.622 58.179,70.748 	"/>
	<polygon fill="#004B85" points="58.866,72.122 61.782,71.278 60.49,68.475 	"/>
	<polygon fill="#004B85" points="62.032,71.719 64.321,71.028 63.538,68.108 	"/>
	<path fill="#004B85" d="M53.369,72.534c2.887-0.276,4.398,1.513,5.225,1.789c0.823,0.275,1.966-3.026,6.091-1.65l-0.44-1.925
		l-2.212,0.972l-1.627-2.054l-1.695,2.207l-1.354-2.158l-1.729,2.005l-1.845-1.521L53.369,72.534"/>
	<polygon fill="#004B85" points="49.658,71.571 51.719,71.709 51.279,67.557 	"/>
	<polygon fill="#004B85" points="66.338,71.658 68.626,71.296 66.444,67.311 	"/>
	<path fill="#004B85" d="M46.712,50.355c0,0-7.254,6.018,0.926,11.113c0,0-7.013,1.079-9.03-3.243
		c-1.079-2.315,2.436-5.628,2.701-5.787"/>
	<path fill="#004B85" d="M70.727,50.355c0,0,7.257,6.018-0.924,11.113c0,0,7.015,1.079,9.029-3.243
		c1.082-2.315-2.437-5.628-2.701-5.787"/>
	<path fill="#004B85" d="M58.593,86.966c0.009,0.068,0.018,0.136,0.025,0.21C58.824,87.115,58.593,86.966,58.593,86.966"/>
	<path fill="#004B85" d="M38.43,34.202c1.745-0.084,2.71,0.398,3.24,0.89l-3.458,3.266c-3.872-0.103-5.183-1.764-5.183-1.764
		C35.035,36.36,36.27,34.305,38.43,34.202 M47.896,31.729c2.987-1.085,6.509,1.624,6.509,1.624c0.231-1.778-0.438-2.343-0.438-2.343
		c2.289-0.382,4.585,3.294,4.585,3.294l0.097,0.23c0,0,2.196-3.7,4.484-3.318c0,0-0.669,0.567-0.438,2.342
		c0,0,3.523-2.709,6.509-1.623c0,0-1.619,0.721-2.161,1.956c0,0,3.824,0.585,6.459,1.695c1.482,1.162,4.112,3.901,5.804,7.931
		c-0.376-0.065-0.754-0.125-1.097-0.16c-0.863-0.085-0.62,4.043,0.893,7.205c1.453,2.246,1.8,4.922,1.636,6.271
		c-0.482,3.958-3.645,8.278-5.845,11.303c-2.198,3.024-3.022,8.658-3.848,11.271c-0.825,2.613-1.697,6.873-7.318,7.148
		c-3.5,0.17-6.448,0.639-9.943-0.137c-4.949-1.102-6.187-4.537-7.012-7.148c-0.823-2.612-1.649-8.248-3.85-11.27
		c-2.2-3.027-6.046-6.497-6.46-11.309c-0.212-2.461,0.323-3.189,1.348-5.881c1.477-2.159,1.653-7.714,1.085-7.658
		c-0.305,0.031-0.632,0.079-0.963,0.136c1.818-4.278,4.683-7.078,6.074-8.069c2.604-1.003,6.052-1.532,6.052-1.532
		C49.516,32.451,47.896,31.729,47.896,31.729 M78.67,34.407c2.16,0.103,3.396,2.161,5.402,2.393c0,0-1.273,1.616-5.021,1.761
		l-3.531-3.34C76.067,34.756,77.019,34.328,78.67,34.407 M85.771,48.606c0,0,1.467-0.387,4.397,1.312c0,0-1.852-7.255-5.787-9.648
		c-0.197-0.118,1.696-0.154,4.477-4.398c0,0-3.026-1.281-4.398-2.082c-2.239-1.313-4.4-2.471-5.635-2.548
		c-0.545-0.033-2.88-0.594-4.167,0.693c-0.231,0.232-1.748-0.616-2.366-0.616c0,0,0.231-0.412,2.779-1.031
		c0.226-0.054-4.297-2.723-9.264-1.233c0,0,0.516-1.235,2.162-1.543c0,0-5.134-1.795-9.32,1.582
		c-4.192-3.421-9.517-1.788-9.517-1.788c1.646,0.309,2.159,1.543,2.159,1.543c-4.964-1.492-9.485,1.181-9.261,1.237
		c2.548,0.615,2.778,1.026,2.778,1.026c-0.615,0-2.134,0.85-2.364,0.617c-1.288-1.287-3.624-0.727-4.169-0.692
		c-1.235,0.075-3.395,1.234-5.632,2.544c-1.375,0.805-4.401,2.085-4.401,2.085c2.78,4.246,4.675,4.279,4.477,4.399
		c-3.935,2.393-5.788,9.648-5.788,9.648c2.934-1.698,4.399-1.314,4.399-1.314c-7.486,5.789-5.559,20.173-5.48,18.753
		c0.079-1.389,2.89-3.122,3.488-3.293c-0.301,2.145-0.335,4.938,0.37,8.617c1.853,9.674,8.437,14.407,8.437,14.407
		c-0.959-2.938-0.765-5.631-0.435-7.368c0.067,0.123,0.116,0.248,0.127,0.37c0.383,4.212,1.7,7.798,2.547,8.952
		c2.419,3.293,1.142,2.419,6.133,6.278l-0.215-5.095c0.187,0.42,0.934,2.476,1.158,2.904c4.322,8.299,13.093,10.885,13.093,10.885
		c-0.746-4.887,0.896-4.819,3.035-6.559c2.129-1.738,2.958-2.949,3.806-4.229l0.01-0.008l0.022-0.045
		c0.411-0.619,0.829-1.258,1.407-1.978c-0.389,2.313-0.739,3.789-2.409,5.048c-0.273,0.205,12.078-5.965,11.518-16.052
		c-0.053-0.927,1.304,4.786,1.013,7.1c0,0,6.584-4.733,8.438-14.409c0.704-3.677,0.672-6.469,0.369-8.617
		c0.599,0.172,3.41,1.906,3.488,3.297C91.329,68.782,93.256,54.393,85.771,48.606"/>
	<path fill="#004B85" d="M56.026,46.779c0,0,2.237-2.316,5.401-0.233l-1.004,0.464c0,0-1.698-1.043-3.472,0L56.026,46.779"/>
	<path fill="#004B85" d="M69.558,61.106c0,0-0.483,0.922,0.291,0.801c4.191-0.653,9.93,1.006,14.086,4.171
		C83.935,66.078,77.251,60.053,69.558,61.106"/>
	<path fill="#004B85" d="M69.19,61.145c0,0-0.298,0.576-0.026,0.803c0.102,0.09-0.49,0.074-0.49,0.074s-0.152-0.668,0.053-0.772
		C68.933,61.145,69.19,61.145,69.19,61.145"/>
	<path fill="#004B85" d="M68.093,62.733c0,0-0.506,0.906,0.272,0.807c4.205-0.553,9.903,1.236,13.982,4.5
		C82.348,68.04,75.806,61.858,68.093,62.733"/>
	<path fill="#004B85" d="M67.743,62.768c0,0-0.295,0.572-0.025,0.803c0.103,0.087-0.487,0.068-0.487,0.068s-0.156-0.666,0.05-0.769
		S67.743,62.768,67.743,62.768"/>
	<path fill="#004B85" d="M66.736,64.436c0,0-0.559,0.879,0.225,0.819c4.231-0.312,9.816,1.806,13.701,5.295
		C80.662,70.55,74.485,64.008,66.736,64.436"/>
	<path fill="#004B85" d="M66.373,64.464c0,0-0.295,0.572-0.025,0.806c0.102,0.086-0.488,0.069-0.488,0.069s-0.155-0.669,0.05-0.772
		C66.117,64.464,66.373,64.464,66.373,64.464"/>
	<path fill="#004B85" d="M47.46,61.106c0,0,0.486,0.922-0.29,0.801c-4.189-0.653-9.93,1.006-14.084,4.171
		C33.086,66.078,39.769,60.053,47.46,61.106"/>
	<path fill="#004B85" d="M47.832,61.145c0,0,0.295,0.576,0.026,0.803c-0.104,0.09,0.488,0.074,0.488,0.074s0.152-0.668-0.052-0.772
		C48.087,61.145,47.832,61.145,47.832,61.145"/>
	<path fill="#004B85" d="M48.924,62.733c0,0,0.508,0.906-0.269,0.807c-4.205-0.553-9.905,1.236-13.984,4.5
		C34.671,68.04,41.213,61.858,48.924,62.733"/>
	<path fill="#004B85" d="M49.28,62.768c0,0,0.294,0.572,0.024,0.803c-0.103,0.087,0.488,0.068,0.488,0.068s0.153-0.666-0.052-0.769
		C49.535,62.768,49.28,62.768,49.28,62.768"/>
	<path fill="#004B85" d="M50.286,64.436c0,0,0.557,0.879-0.225,0.819c-4.23-0.312-9.816,1.806-13.703,5.295
		C36.358,70.55,42.535,64.008,50.286,64.436"/>
	<path fill="#004B85" d="M50.649,64.464c0,0,0.295,0.572,0.024,0.806c-0.103,0.086,0.49,0.069,0.49,0.069s0.153-0.669-0.053-0.772
		C50.905,64.464,50.649,64.464,50.649,64.464"/>
	<polygon fill="#004B85" points="37.394,52.027 39.868,48.615 35.429,50.141 	"/>
	<polygon fill="#004B85" points="80.384,52.529 77.361,48.945 81.8,50.472 	"/>
	<path fill="#004B85" d="M53.108,44.205l-1.415-2.736c-3.638-0.949-5.04-2.454-5.832-4.51c4.904,2.374,8.504,3.719,8.504,3.719
		l0.326,5.506L53.108,44.205"/>
	<path fill="#004B85" d="M57.143,30.192h3.304c-0.633,5.696-1.019,10.759-1.019,10.759l-1.267-0.157
		C57.689,34.781,57.143,30.192,57.143,30.192"/>
	<path fill="#004B85" d="M65.951,59.156c-0.069,0.071-0.004,0.151-0.091,0.227c0.165-0.196-0.095-0.202-0.112-0.419
		c0.791-0.527,0-0.791,0-0.791c-1.449-0.264-3.067,0.705-4.875,1.034c-0.799,0.146-2.771,0.502-4.074,0
		c-1.713-0.658-3.426-1.298-4.875-1.034c0,0-0.427,0.145-0.337,0.43c-0.216,0.109-0.416,0.443-0.19,1.414
		c0.395,1.715,4.61,2.239,5.533,2.9c0,0-0.017-0.13-0.064-0.313c0.758,0.684,1.284,1.657,1.242,3.211c0,0-0.106,0.688,0.729,0.353
		c0.836,0.336,0.731-0.353,0.731-0.353c-0.368-1.461,0.28-2.51,1.275-3.338c-0.077,0.25-0.101,0.439-0.101,0.439
		c0.922-0.661,5.14-1.186,5.534-2.9C66.671,58.305,65.951,59.156,65.951,59.156"/>
	<path fill="#004B85" d="M54.42,48.695c-0.683,1.571-2.036,9.477-2.036,9.477l-1.22,1.825c-2.461-1.825,0.821-9.598,0.821-11.444
		C51.986,46.709,54.42,48.695,54.42,48.695"/>
	<path fill="#004B85" d="M64.28,44.205l1.415-2.736c3.639-0.949,5.043-2.454,5.832-4.51c-4.904,2.374-8.502,3.719-8.502,3.719
		l-0.327,5.506L64.28,44.205"/>
	<path fill="#004B85" d="M63.103,48.695c0.657,1.571,1.978,9.477,1.978,9.477l1.177,1.825c2.371-1.825-0.791-9.598-0.791-11.444
		C65.466,46.709,63.103,48.695,63.103,48.695"/>
	<path fill="#004B85" d="M49.3,46.445c0,1.073-0.868,1.593-1.939,1.593c-1.073,0-1.942-0.52-1.942-1.593
		c0-1.071,0.869-1.942,1.942-1.942C48.432,44.503,49.3,45.375,49.3,46.445"/>
	<path fill="none" stroke="#004B85" stroke-width="0.866" d="M49.3,46.445c0,1.073-0.868,1.593-1.939,1.593
		c-1.073,0-1.942-0.52-1.942-1.593c0-1.071,0.869-1.942,1.942-1.942C48.432,44.503,49.3,45.375,49.3,46.445z"/>
	<path fill="#004B85" d="M41.693,44.25c2.977-0.737,2.636-0.758,5.4-0.815c6.722-0.142,5.657,4.314,7.238,4.982l-2.098,2.122
		c-0.903-0.9-0.414-1.388-1.592-2.775c0.264-3.031-2.348-3.269-3.692-2.947c-1.109,0.986-2.282-0.327-1.42,1.03
		C40.618,45.109,41.693,44.25,41.693,44.25"/>
	<path fill="#004B85" d="M68.182,46.445c0,1.073,0.868,1.593,1.941,1.593s1.943-0.52,1.943-1.593c0-1.071-0.87-1.942-1.943-1.942
		S68.182,45.375,68.182,46.445"/>
	<path fill="none" stroke="#004B85" stroke-width="0.866" d="M68.182,46.445c0,1.073,0.868,1.593,1.941,1.593
		s1.943-0.52,1.943-1.593c0-1.071-0.87-1.942-1.943-1.942S68.182,45.375,68.182,46.445z"/>
	<path fill="#004B85" d="M75.792,44.25c-2.636-0.982-2.636-0.755-5.403-0.815c-6.427-0.142-5.654,4.314-7.237,4.982l2.1,2.122
		c0.904-0.9,0.412-1.388,1.591-2.775c-0.263-3.031,2.349-3.269,3.692-2.947c1.109,0.986,2.625-0.573,1.762,0.785
		C76.838,45.478,75.792,44.25,75.792,44.25"/>
	<path fill="#FFFFFF" d="M48.887,46.313c0,0.703-0.665,1.273-1.483,1.273s-1.483-0.57-1.483-1.273c0-0.699,0.665-1.271,1.483-1.271
		S48.887,45.614,48.887,46.313"/>
	<path fill="#004B85" d="M48.446,45.784c0,0.594-0.449,1.078-1.002,1.078s-1.002-0.484-1.002-1.078c0-0.596,0.449-1.079,1.002-1.079
		S48.446,45.188,48.446,45.784"/>
	<path fill="#FFFFFF" d="M71.677,46.313c0,0.703-0.664,1.273-1.485,1.273c-0.817,0-1.482-0.57-1.482-1.273
		c0-0.699,0.665-1.271,1.482-1.271C71.013,45.042,71.677,45.614,71.677,46.313"/>
	<path fill="#004B85" d="M71.234,45.784c0,0.594-0.449,1.078-1,1.078c-0.556,0-1.002-0.484-1.002-1.078
		c0-0.596,0.446-1.079,1.002-1.079C70.785,44.705,71.234,45.188,71.234,45.784"/>
</g>
</svg>
